<svg width="19" height="20" viewBox="0 0 19 20" fill="none" xmlns="http://www.w3.org/2000/svg">
    <path fill-rule="evenodd" clip-rule="evenodd" d="M9.49998 19.1668C4.43737 19.1668 0.333313 15.0628 0.333313 10.0002C0.333313 4.93755 4.43737 0.833496 9.49998 0.833496C14.5626 0.833496 18.6666 4.93755 18.6666 10.0002C18.6666 15.0628 14.5626 19.1668 9.49998 19.1668ZM9.49998 17.5002C13.6421 17.5002 17 14.1423 17 10.0002C17 5.85803 13.6421 2.50016 9.49998 2.50016C5.35784 2.50016 1.99998 5.85803 1.99998 10.0002C1.99998 14.1423 5.35784 17.5002 9.49998 17.5002ZM13.6666 9.16683H10.3333V5.8335H8.66665V9.16683H5.33331V10.8335H8.66665V14.1668H10.3333V10.8335H13.6666V9.16683Z" fill="#C5E4F3"/>
</svg>
