<svg width="284" height="300" viewBox="0 0 284 300" fill="none" xmlns="http://www.w3.org/2000/svg">
<g clip-path="url(#clip0_400_49812)">
<rect width="284" height="300" fill="white" fill-opacity="0.08"/>
<g opacity="0.08" filter="url(#filter0_f_400_49812)">
<path d="M-0.242221 120.139C25.6707 132.962 57.0723 122.35 69.8952 96.4374C82.7182 70.5245 72.1066 39.1229 46.1937 26.3C20.2807 13.4771 -11.1209 24.0886 -23.9438 50.0015C-36.7667 75.9145 -26.1552 107.316 -0.242221 120.139Z" fill="#23B852"/>
<path d="M26.3986 86.4053L36.3396 91.3246L32.0385 100.016L2.17131 85.2368L57.6061 66.4817C58.4885 66.1776 59.2632 65.6231 59.8355 64.8858C60.4077 64.1486 60.7528 63.2606 60.8286 62.3304C60.883 61.3955 60.6604 60.4654 60.1885 59.6565C59.7166 58.8476 59.0165 58.196 58.1759 57.7833L13.8957 35.8714C13.3376 35.5904 12.7293 35.4232 12.106 35.3795C11.4827 35.3358 10.857 35.4165 10.2652 35.617C9.67342 35.8174 9.12742 36.1336 8.65897 36.547C8.19052 36.9604 7.80898 37.4629 7.53656 38.0252L-7.98464 69.3909L19.5296 60.0808L9.58858 55.1615L13.9129 46.4227L43.7303 61.1777L-11.6547 79.9575C-12.5371 80.2615 -13.3117 80.8161 -13.884 81.5533C-14.4563 82.2906 -14.8014 83.1786 -14.8771 84.1088C-14.982 86.01 -13.9693 87.7924 -12.2245 88.6558L32.0558 110.568C32.6146 110.844 33.2226 111.008 33.8448 111.049C34.467 111.091 35.0912 111.009 35.6818 110.809C36.2724 110.609 36.8178 110.295 37.2868 109.884C37.7557 109.473 38.1391 108.973 38.4149 108.414L53.9128 77.0952L26.3986 86.4053Z" fill="white"/>
</g>
<g opacity="0.2" filter="url(#filter1_f_400_49812)">
<path d="M102.458 33.7194C119.73 32.8751 133.048 18.1886 132.203 0.916192C131.359 -16.3562 116.673 -29.6738 99.4002 -28.8295C82.1278 -27.9852 68.8102 -13.2987 69.6545 3.97366C70.4988 21.2461 85.1852 34.5637 102.458 33.7194Z" fill="#23B852"/>
<path d="M106.556 8.3378L113.182 8.0139L113.466 13.8075L93.5575 14.7806L117.061 -11.1576C117.434 -11.5734 117.677 -12.0887 117.761 -12.6405C117.846 -13.1923 117.768 -13.7568 117.536 -14.2648C117.293 -14.7691 116.906 -15.1903 116.424 -15.4755C115.941 -15.7608 115.386 -15.8974 114.827 -15.8683L85.3114 -14.4256C84.938 -14.4099 84.5714 -14.3202 84.2331 -14.1616C83.8947 -14.0029 83.5913 -13.7786 83.3404 -13.5016C83.0896 -13.2245 82.8963 -12.9004 82.7719 -12.548C82.6475 -12.1956 82.5945 -11.822 82.6159 -11.4489L83.6378 9.45808L95.3032 -3.41669L88.677 -3.09279L88.3922 -8.91766L108.267 -9.88917L84.7965 16.0475C84.424 16.4632 84.1807 16.9785 84.0963 17.5303C84.012 18.0821 84.0902 18.6466 84.3214 19.1547C84.8202 20.1785 85.8682 20.815 87.0312 20.7582L116.546 19.3154C116.919 19.2972 117.284 19.2057 117.621 19.0462C117.959 18.8867 118.261 18.6623 118.511 18.3859C118.762 18.1094 118.955 17.7863 119.08 17.435C119.206 17.0838 119.261 16.7112 119.242 16.3387L118.222 -4.53697L106.556 8.3378Z" fill="white"/>
</g>
<g filter="url(#filter2_f_400_49812)">
<path d="M33.6005 12.3914C57.6943 21.096 84.2826 8.62057 92.9872 -15.4733C101.692 -39.5671 89.2164 -66.1555 65.1226 -74.86C41.0287 -83.5646 14.4404 -71.0892 5.73577 -46.9954C-2.96882 -22.9015 9.50662 3.68683 33.6005 12.3914Z" fill="#23B852"/>
<path d="M53.6905 -19.9663L62.9337 -16.6269L60.0139 -8.54524L32.2434 -18.5781L79.179 -40.621C79.9255 -40.9767 80.5523 -41.5423 80.9826 -42.2485C81.4129 -42.9546 81.6281 -43.7709 81.602 -44.5975C81.5567 -45.426 81.2679 -46.2227 80.7717 -46.8877C80.2756 -47.5528 79.5942 -48.0567 78.8129 -48.3362L37.6412 -63.2107C37.1218 -63.4024 36.5695 -63.4889 36.0164 -63.4652C35.4633 -63.4415 34.9204 -63.308 34.4194 -63.0725C33.9184 -62.837 33.4692 -62.5042 33.098 -62.0934C32.7268 -61.6827 32.441 -61.2022 32.2573 -60.68L21.721 -31.5162L45.0167 -42.458L35.7735 -45.7974L38.709 -53.9227L66.4331 -43.9065L19.5439 -21.8469C18.7974 -21.4912 18.1706 -20.9256 17.7403 -20.2194C17.31 -19.5133 17.0948 -18.697 17.1209 -17.8704C17.2183 -16.1861 18.2876 -14.7178 19.91 -14.1317L61.0818 0.742767C61.6014 0.930506 62.153 1.01396 62.7049 0.988361C63.2568 0.962758 63.7983 0.828597 64.2983 0.593556C64.7984 0.358514 65.2472 0.0272034 65.6191 -0.381432C65.9909 -0.790068 66.2786 -1.26801 66.4657 -1.78792L76.9862 -30.9081L53.6905 -19.9663Z" fill="white"/>
</g>
<g opacity="0.5" filter="url(#filter3_df_400_49812)">
<path d="M-82.183 317.432C-30.7381 336.018 26.0332 309.38 44.6191 257.936C63.2051 206.491 36.5677 149.719 -14.8773 131.133C-66.3222 112.547 -123.094 139.185 -141.679 190.63C-160.265 242.075 -133.628 298.846 -82.183 317.432Z" fill="#23B852"/>
<path d="M-39.2869 248.342L-19.5509 255.472L-25.785 272.728L-85.0804 251.306L15.136 204.24C16.73 203.48 18.0682 202.273 18.987 200.765C19.9058 199.257 20.3654 197.514 20.3096 195.749C20.2128 193.98 19.5962 192.279 18.5368 190.859C17.4774 189.439 16.0225 188.363 14.3544 187.767L-73.5552 156.007C-74.6642 155.597 -75.8434 155.412 -77.0244 155.463C-78.2054 155.514 -79.3645 155.799 -80.4343 156.302C-81.5041 156.805 -82.4632 157.515 -83.2558 158.392C-84.0483 159.269 -84.6585 160.295 -85.0509 161.41L-107.548 223.68L-57.8071 200.318L-77.5431 193.187L-71.2753 175.838L-12.0789 197.225L-112.196 244.326C-113.79 245.086 -115.129 246.293 -116.047 247.801C-116.966 249.309 -117.426 251.052 -117.37 252.817C-117.162 256.413 -114.879 259.548 -111.415 260.8L-23.5051 292.56C-22.3955 292.96 -21.2178 293.139 -20.0393 293.084C-18.8609 293.029 -17.7047 292.743 -16.637 292.241C-15.5694 291.739 -14.6111 291.032 -13.817 290.159C-13.023 289.287 -12.4087 288.266 -12.0094 287.156L10.4539 224.979L-39.2869 248.342Z" fill="white"/>
</g>
<g opacity="0.28" filter="url(#filter4_f_400_49812)">
<path d="M309.056 243.356C322.058 241.896 331.415 230.172 329.955 217.17C328.495 204.168 316.771 194.811 303.769 196.271C290.767 197.731 281.41 209.455 282.87 222.457C284.33 235.459 296.054 244.816 309.056 243.356Z" fill="#23B852"/>
</g>
<g opacity="0.2" filter="url(#filter5_f_400_49812)">
<path d="M282.477 138.108C299.957 130.831 308.229 110.762 300.953 93.2819C293.676 75.8018 273.607 67.53 256.127 74.8064C238.647 82.0828 230.375 102.152 237.652 119.632C244.928 137.112 264.997 145.384 282.477 138.108Z" fill="#23B852"/>
<path d="M277.285 110.44L283.991 107.649L286.432 113.512L266.284 121.899L280.876 86.4604C281.105 85.894 281.165 85.2729 281.047 84.6731C280.929 84.0734 280.639 83.5209 280.213 83.0833C279.774 82.6542 279.219 82.3639 278.617 82.2489C278.015 82.1338 277.392 82.1991 276.826 82.4365L246.956 94.8705C246.577 95.0251 246.233 95.2535 245.943 95.5424C245.653 95.8314 245.424 96.175 245.268 96.5534C245.113 96.9319 245.034 97.3374 245.037 97.7466C245.039 98.1558 245.123 98.5603 245.283 98.9368L254.091 120.095L261.333 102.505L254.627 105.297L252.173 99.4018L272.287 91.029L257.729 126.453C257.499 127.02 257.44 127.641 257.557 128.241C257.675 128.841 257.965 129.393 258.392 129.831C259.285 130.7 260.601 130.967 261.778 130.477L291.648 118.043C292.025 117.886 292.368 117.657 292.656 117.367C292.944 117.078 293.172 116.735 293.328 116.357C293.483 115.979 293.562 115.575 293.561 115.166C293.56 114.758 293.478 114.354 293.321 113.977L284.527 92.8504L277.285 110.44Z" fill="white"/>
</g>
<g filter="url(#filter6_df_400_49812)">
<path d="M266.036 205.073C281.87 201.415 291.741 185.615 288.083 169.781C284.426 153.948 268.626 144.077 252.792 147.734C236.959 151.392 227.088 167.192 230.745 183.026C234.403 198.859 250.203 208.73 266.036 205.073Z" fill="#23B852"/>
<path d="M265.6 180.916L271.674 179.513L272.901 184.824L254.651 189.039L272.069 161.136C272.344 160.69 272.483 160.173 272.469 159.648C272.456 159.124 272.289 158.615 271.991 158.183C271.681 157.758 271.253 157.433 270.76 157.249C270.267 157.066 269.73 157.032 269.218 157.152L242.161 163.401C241.819 163.478 241.494 163.622 241.208 163.825C240.921 164.028 240.678 164.286 240.492 164.584C240.306 164.882 240.182 165.214 240.125 165.561C240.069 165.907 240.082 166.262 240.164 166.603L244.591 185.769L253.235 171.919L247.161 173.322L245.928 167.982L264.147 163.774L246.76 191.67C246.485 192.116 246.345 192.633 246.359 193.158C246.373 193.682 246.539 194.191 246.838 194.622C247.47 195.486 248.545 195.9 249.611 195.654L276.668 189.405C277.009 189.326 277.332 189.18 277.617 188.977C277.902 188.773 278.144 188.515 278.33 188.218C278.515 187.92 278.64 187.589 278.698 187.243C278.755 186.898 278.744 186.544 278.665 186.203L274.244 167.066L265.6 180.916Z" fill="white"/>
</g>
<g filter="url(#filter7_df_400_49812)">
<path d="M252.744 71.5102C290.034 69.2725 318.448 37.2294 316.211 -0.0599701C313.973 -37.3493 281.93 -65.7642 244.64 -63.5265C207.351 -61.2887 178.936 -29.2456 181.174 8.04375C183.412 45.3331 215.455 73.748 252.744 71.5102Z" fill="#23B852"/>
<path d="M260.989 16.5862L275.294 15.7277L276.045 28.2355L233.065 30.8147L283.213 -25.7771C284.008 -26.6841 284.521 -27.803 284.69 -28.997C284.859 -30.191 284.677 -31.4083 284.165 -32.5003C283.627 -33.5838 282.78 -34.4842 281.732 -35.0888C280.684 -35.6934 279.481 -35.9753 278.273 -35.899L214.553 -32.0751C213.747 -32.0323 212.957 -31.8297 212.23 -31.4789C211.503 -31.1281 210.853 -30.6362 210.318 -30.0319C209.782 -29.4275 209.373 -28.7227 209.113 -27.9585C208.852 -27.1943 208.747 -26.386 208.802 -25.5806L211.51 19.5554L236.4 -8.5346L222.094 -7.67611L221.34 -20.2514L264.248 -22.8264L214.171 33.7612C213.377 34.6682 212.863 35.7871 212.694 36.9811C212.525 38.1751 212.708 39.3924 213.22 40.4844C214.321 42.684 216.6 44.0338 219.111 43.8831L282.832 40.0591C283.636 40.0109 284.423 39.8045 285.147 39.4519C285.872 39.0993 286.519 38.6073 287.054 38.0042C287.588 37.401 287.998 36.6984 288.26 35.9366C288.523 35.1749 288.632 34.3688 288.583 33.5646L285.878 -11.5039L260.989 16.5862Z" fill="white"/>
</g>
</g>
<defs>
<filter id="filter0_f_400_49812" x="-66.1617" y="-15.918" width="178.275" height="178.275" filterUnits="userSpaceOnUse" color-interpolation-filters="sRGB">
<feFlood flood-opacity="0" result="BackgroundImageFix"/>
<feBlend mode="normal" in="SourceGraphic" in2="BackgroundImageFix" result="shape"/>
<feGaussianBlur stdDeviation="9.5" result="effect1_foregroundBlur_400_49812"/>
</filter>
<filter id="filter1_f_400_49812" x="49.1257" y="-49.3584" width="103.606" height="103.606" filterUnits="userSpaceOnUse" color-interpolation-filters="sRGB">
<feFlood flood-opacity="0" result="BackgroundImageFix"/>
<feBlend mode="normal" in="SourceGraphic" in2="BackgroundImageFix" result="shape"/>
<feGaussianBlur stdDeviation="9.5" result="effect1_foregroundBlur_400_49812"/>
</filter>
<filter id="filter2_f_400_49812" x="-22.697" y="-103.293" width="144.117" height="144.117" filterUnits="userSpaceOnUse" color-interpolation-filters="sRGB">
<feFlood flood-opacity="0" result="BackgroundImageFix"/>
<feBlend mode="normal" in="SourceGraphic" in2="BackgroundImageFix" result="shape"/>
<feGaussianBlur stdDeviation="6.33586" result="effect1_foregroundBlur_400_49812"/>
</filter>
<filter id="filter3_df_400_49812" x="-240.332" y="36.4805" width="383.604" height="383.604" filterUnits="userSpaceOnUse" color-interpolation-filters="sRGB">
<feFlood flood-opacity="0" result="BackgroundImageFix"/>
<feColorMatrix in="SourceAlpha" type="matrix" values="0 0 0 0 0 0 0 0 0 0 0 0 0 0 0 0 0 0 127 0" result="hardAlpha"/>
<feOffset dy="4"/>
<feGaussianBlur stdDeviation="32.5"/>
<feComposite in2="hardAlpha" operator="out"/>
<feColorMatrix type="matrix" values="0 0 0 0 0.388235 0 0 0 0 0.278431 0 0 0 0 0.960784 0 0 0 0.5 0"/>
<feBlend mode="normal" in2="BackgroundImageFix" result="effect1_dropShadow_400_49812"/>
<feBlend mode="normal" in="SourceGraphic" in2="effect1_dropShadow_400_49812" result="shape"/>
<feGaussianBlur stdDeviation="20" result="effect2_foregroundBlur_400_49812"/>
</filter>
<filter id="filter4_f_400_49812" x="261.226" y="174.627" width="90.3721" height="90.3721" filterUnits="userSpaceOnUse" color-interpolation-filters="sRGB">
<feFlood flood-opacity="0" result="BackgroundImageFix"/>
<feBlend mode="normal" in="SourceGraphic" in2="BackgroundImageFix" result="shape"/>
<feGaussianBlur stdDeviation="9.5" result="effect1_foregroundBlur_400_49812"/>
</filter>
<filter id="filter5_f_400_49812" x="208.477" y="45.6313" width="121.651" height="121.651" filterUnits="userSpaceOnUse" color-interpolation-filters="sRGB">
<feFlood flood-opacity="0" result="BackgroundImageFix"/>
<feBlend mode="normal" in="SourceGraphic" in2="BackgroundImageFix" result="shape"/>
<feGaussianBlur stdDeviation="8" result="effect1_foregroundBlur_400_49812"/>
</filter>
<filter id="filter6_df_400_49812" x="159.123" y="80.1123" width="200.582" height="200.583" filterUnits="userSpaceOnUse" color-interpolation-filters="sRGB">
<feFlood flood-opacity="0" result="BackgroundImageFix"/>
<feColorMatrix in="SourceAlpha" type="matrix" values="0 0 0 0 0 0 0 0 0 0 0 0 0 0 0 0 0 0 127 0" result="hardAlpha"/>
<feOffset dy="4"/>
<feGaussianBlur stdDeviation="32.5"/>
<feComposite in2="hardAlpha" operator="out"/>
<feColorMatrix type="matrix" values="0 0 0 0 0.14902 0 0 0 0 0.631373 0 0 0 0 0.482353 0 0 0 0.51 0"/>
<feBlend mode="normal" in2="BackgroundImageFix" result="effect1_dropShadow_400_49812"/>
<feBlend mode="normal" in="SourceGraphic" in2="effect1_dropShadow_400_49812" result="shape"/>
<feGaussianBlur stdDeviation="3" result="effect2_foregroundBlur_400_49812"/>
</filter>
<filter id="filter7_df_400_49812" x="112.122" y="-128.578" width="273.14" height="273.14" filterUnits="userSpaceOnUse" color-interpolation-filters="sRGB">
<feFlood flood-opacity="0" result="BackgroundImageFix"/>
<feColorMatrix in="SourceAlpha" type="matrix" values="0 0 0 0 0 0 0 0 0 0 0 0 0 0 0 0 0 0 127 0" result="hardAlpha"/>
<feOffset dy="4"/>
<feGaussianBlur stdDeviation="32.5"/>
<feComposite in2="hardAlpha" operator="out"/>
<feColorMatrix type="matrix" values="0 0 0 0 0.14902 0 0 0 0 0.631373 0 0 0 0 0.482353 0 0 0 0.51 0"/>
<feBlend mode="normal" in2="BackgroundImageFix" result="effect1_dropShadow_400_49812"/>
<feBlend mode="normal" in="SourceGraphic" in2="effect1_dropShadow_400_49812" result="shape"/>
<feGaussianBlur stdDeviation="12" result="effect2_foregroundBlur_400_49812"/>
</filter>
<filter id="filter8_b_400_49812" x="-40" y="176" width="364" height="164" filterUnits="userSpaceOnUse" color-interpolation-filters="sRGB">
<feFlood flood-opacity="0" result="BackgroundImageFix"/>
<feGaussianBlur in="BackgroundImageFix" stdDeviation="32"/>
<feComposite in2="SourceAlpha" operator="in" result="effect1_backgroundBlur_400_49812"/>
<feBlend mode="normal" in="SourceGraphic" in2="effect1_backgroundBlur_400_49812" result="shape"/>
</filter>
<clipPath id="clip0_400_49812">
<rect width="284" height="300" fill="white"/>
</clipPath>
</defs>
</svg>
