<svg width="64" height="64" viewBox="0 0 64 64" fill="none" xmlns="http://www.w3.org/2000/svg">
    <path fill-rule="evenodd" clip-rule="evenodd" d="M18 26.2256L28 31.9991L18 37.7726L18 32.9991L0 32.9991L0 30.9991L18 30.9991V26.2256Z" fill="url(#paint0_linear_3_3528)"/>
    <path fill-rule="evenodd" clip-rule="evenodd" d="M26.2264 46L31.9999 36L37.7734 46L32.9999 46L32.9999 64L30.9999 64L30.9999 46L26.2264 46Z" fill="url(#paint1_linear_3_3528)"/>
    <path fill-rule="evenodd" clip-rule="evenodd" d="M46 37.7734L36 31.9999L46 26.2264L46 30.9999L64 30.9999L64 32.9999L46 32.9999L46 37.7734Z" fill="url(#paint2_linear_3_3528)"/>
    <path fill-rule="evenodd" clip-rule="evenodd" d="M37.7736 18L32.0001 28L26.2266 18L31.0001 18L31.0001 -2.96079e-07L33.0001 -2.08656e-07L33.0001 18L37.7736 18Z" fill="url(#paint3_linear_3_3528)"/>
    <rect x="13.5" y="13.5" width="37" height="37" stroke="#2B63F1"/>
    <defs>
        <linearGradient id="paint0_linear_3_3528" x1="12" y1="31.9996" x2="6.03708" y2="37.9995" gradientUnits="userSpaceOnUse">
            <stop stop-color="#2B63F1"/>
            <stop offset="1" stop-color="#2B63F1" stop-opacity="0"/>
        </linearGradient>
        <linearGradient id="paint1_linear_3_3528" x1="32.0004" y1="52" x2="38.0003" y2="57.9629" gradientUnits="userSpaceOnUse">
            <stop stop-color="#2B63F1"/>
            <stop offset="1" stop-color="#2B63F1" stop-opacity="0"/>
        </linearGradient>
        <linearGradient id="paint2_linear_3_3528" x1="52" y1="31.9994" x2="57.9629" y2="25.9996" gradientUnits="userSpaceOnUse">
            <stop stop-color="#2B63F1"/>
            <stop offset="1" stop-color="#2B63F1" stop-opacity="0"/>
        </linearGradient>
        <linearGradient id="paint3_linear_3_3528" x1="31.9996" y1="12" x2="25.9997" y2="6.03708" gradientUnits="userSpaceOnUse">
            <stop stop-color="#2B63F1"/>
            <stop offset="1" stop-color="#2B63F1" stop-opacity="0"/>
        </linearGradient>
    </defs>
</svg>
