<svg width="36" height="36" viewBox="0 0 36 36" fill="none" xmlns="http://www.w3.org/2000/svg">
    <g clip-path="url(#clip0_400_59635)">
        <path d="M18 36C27.9411 36 36 27.9411 36 18C36 8.05887 27.9411 0 18 0C8.05887 0 0 8.05887 0 18C0 27.9411 8.05887 36 18 36Z" fill="#23B852"/>
        <path d="M21.0656 21.5415H24.8794V24.876H13.4212L27.6446 10.6425C27.8702 10.4143 28.0243 10.1252 28.0883 9.81077C28.1522 9.49629 28.1231 9.17001 28.0046 8.87179C27.8788 8.57539 27.6684 8.3227 27.3996 8.14539C27.1308 7.96808 26.8157 7.87404 26.4937 7.87504H9.50625C9.29142 7.87354 9.07844 7.91478 8.8797 7.99637C8.68097 8.07796 8.50044 8.19826 8.34864 8.35028C8.19683 8.50229 8.07678 8.68298 7.99547 8.88183C7.91415 9.08068 7.8732 9.29371 7.875 9.50854V21.5415L14.9344 14.4765H11.1206V11.124H22.5596L8.35537 25.3575C8.12981 25.5858 7.97565 25.8748 7.91171 26.1893C7.84778 26.5038 7.87685 26.8301 7.99537 27.1283C8.253 27.7302 8.83687 28.125 9.50625 28.125H26.4937C26.7082 28.125 26.9205 28.0828 27.1185 28.0007C27.3166 27.9185 27.4965 27.7982 27.648 27.6465C27.7995 27.4947 27.9196 27.3147 28.0015 27.1165C28.0833 26.9183 28.1253 26.7059 28.125 26.4915V14.4765L21.0656 21.5415Z" fill="white"/>
    </g>
    <defs>
        <clipPath id="clip0_400_59635">
            <rect width="36" height="36" fill="white"/>
        </clipPath>
    </defs>
</svg>
