<svg width="20" height="20" viewBox="0 0 20 20" fill="none" xmlns="http://www.w3.org/2000/svg">
    <path d="M10.0001 1C5.02951 1 1 5.04636 1 10.0377C1 14.5143 4.2447 18.2217 8.49902 18.9396V11.9232H6.32795V9.39825H8.49902V7.53647C8.49902 5.37626 9.81292 4.19907 11.7322 4.19907C12.6515 4.19907 13.4414 4.26786 13.6708 4.29815V6.55614L12.3396 6.55679C11.296 6.55679 11.0948 7.05466 11.0948 7.78551V9.39696H13.5849L13.2601 11.9219H11.0948V19C15.5478 18.4558 19 14.6539 19 10.0351C19 5.04636 14.9705 1 10.0001 1Z" fill="white" fill-opacity="0.48"/>
</svg>
