<svg width="135" height="24" viewBox="0 0 135 24" fill="none" xmlns="http://www.w3.org/2000/svg">
    <path d="M0 9.47129L8.75354 0.600266H22.9468V14.8573L14.2294 23.6016V9.47129H0Z" fill="#C5E4F3"/>
    <path d="M35.0425 0.945284H45.9106V3.60194H37.9407V8.06994H44.4615V10.7266H37.9407V17.8512H35.0425V0.945284Z" fill="#C5E4F3"/>
    <path d="M52.2703 17.8512C51.6101 17.8512 51.0547 17.7707 50.6038 17.6097C50.153 17.4487 49.7827 17.2394 49.4929 16.9818C49.2031 16.7242 48.9776 16.4424 48.8166 16.1365C48.6556 15.8145 48.5349 15.5086 48.4544 15.2188C48.39 14.9289 48.3497 14.6633 48.3336 14.4218C48.3175 14.1802 48.3095 13.9951 48.3095 13.8663V0.945284H51.111V13.5765C51.111 14.7196 51.6665 15.2912 52.7775 15.2912H53.3812V17.8512H52.2703Z" fill="#C5E4F3"/>
    <path d="M59.2764 18.0928C57.8434 18.0928 56.7807 17.7707 56.0884 17.1267C55.396 16.4827 55.0499 15.5891 55.0499 14.4459C55.0499 13.8502 55.1465 13.3108 55.3397 12.8278C55.5329 12.3447 55.8469 11.9342 56.2816 11.596C56.7163 11.2579 57.2799 11.0003 57.9722 10.8232C58.6645 10.63 59.5018 10.5334 60.4839 10.5334H62.8749V9.8813C62.8749 9.25336 62.6898 8.77033 62.3194 8.43221C61.9491 8.07799 61.3775 7.90088 60.6047 7.90088C59.8318 7.90088 59.2764 8.04579 58.9382 8.33561C58.6001 8.60932 58.3989 8.96354 58.3345 9.39827H55.5329C55.5651 8.85084 55.6939 8.34366 55.9193 7.87673C56.1447 7.3937 56.4668 6.98313 56.8854 6.64501C57.304 6.29079 57.8192 6.01707 58.4311 5.82386C59.059 5.63065 59.7835 5.53405 60.6047 5.53405C62.3275 5.53405 63.5995 5.92852 64.4206 6.71746C65.2579 7.50641 65.6765 8.64152 65.6765 10.1228V17.8512H63.5029L63.2372 16.2814H63.1889C62.722 16.861 62.1504 17.3119 61.4741 17.6339C60.7979 17.9398 60.0653 18.0928 59.2764 18.0928ZM59.7594 15.7259C60.2102 15.7259 60.6208 15.6535 60.9911 15.5086C61.3775 15.3637 61.7076 15.1704 61.9813 14.9289C62.255 14.6713 62.4724 14.3735 62.6334 14.0353C62.7944 13.6811 62.8749 13.3027 62.8749 12.9002V12.6104H60.6047C59.6386 12.6104 58.9624 12.7714 58.576 13.0934C58.1896 13.3993 57.9963 13.818 57.9963 14.3493C57.9963 14.7518 58.1332 15.0819 58.4069 15.3395C58.6967 15.5971 59.1476 15.7259 59.7594 15.7259Z" fill="#C5E4F3"/>
    <path d="M73.7565 17.8512C73.0964 17.8512 72.5409 17.7707 72.0901 17.6097C71.6393 17.4487 71.2609 17.2394 70.955 16.9818C70.6652 16.7242 70.4398 16.4424 70.2787 16.1365C70.1177 15.8145 69.997 15.5086 69.9165 15.2188C69.8521 14.9289 69.8118 14.6633 69.7957 14.4218C69.7796 14.1802 69.7716 13.9951 69.7716 13.8663V8.33561H67.5979V5.77556H69.7716V2.39437H72.5731V5.77556H75.5679V8.33561H72.5731V13.4798C72.5731 13.6087 72.5812 13.7777 72.5973 13.987C72.6134 14.1963 72.6778 14.3976 72.7905 14.5908C72.9032 14.784 73.0723 14.9531 73.2977 15.098C73.5231 15.2268 73.8451 15.2912 74.2637 15.2912H75.8094V17.8512H73.7565Z" fill="#C5E4F3"/>
    <path d="M89.7751 17.1509C88.7607 17.7305 87.5854 18.0203 86.249 18.0203C85.2024 18.0203 84.2525 17.8432 83.3991 17.489C82.5458 17.1348 81.8051 16.6195 81.1772 15.9433C80.5654 15.251 80.0904 14.4057 79.7523 13.4074C79.4142 12.393 79.2451 11.2338 79.2451 9.9296V8.62542C79.2451 7.38565 79.4142 6.28274 79.7523 5.31668C80.1065 4.33453 80.5895 3.51338 81.2014 2.85324C81.8132 2.177 82.5458 1.66178 83.3991 1.30755C84.2686 0.953335 85.2185 0.776225 86.249 0.776225C87.2794 0.776225 88.2214 0.953335 89.0747 1.30755C89.9442 1.64567 90.6848 2.15285 91.2966 2.82909C91.9246 3.48923 92.4076 4.31038 92.7457 5.29253C93.0838 6.25859 93.2529 7.36955 93.2529 8.62542V9.9296C93.2529 11.3465 93.0597 12.5782 92.6733 13.6248C92.2868 14.6552 91.7394 15.5166 91.031 16.209L93.2529 19.0588H91.2725L89.7751 17.1509ZM86.249 16.4746C87.215 16.4746 88.0523 16.2734 88.7607 15.8708L86.249 12.6587H88.2294L89.9925 14.8806C90.4755 14.3332 90.8458 13.6489 91.1034 12.8278C91.3771 12.0066 91.514 11.0406 91.514 9.9296V8.62542C91.514 7.61107 91.3771 6.71746 91.1034 5.94462C90.8458 5.15567 90.4835 4.49554 90.0166 3.96421C89.5497 3.41678 88.9942 3.0062 88.3502 2.73249C87.7061 2.45877 87.0057 2.32191 86.249 2.32191C85.4762 2.32191 84.7677 2.45877 84.1237 2.73249C83.4796 3.0062 82.9242 3.40873 82.4572 3.94006C81.9903 4.47139 81.628 5.13152 81.3704 5.92047C81.1128 6.69331 80.984 7.59496 80.984 8.62542V9.9296C80.984 11.0084 81.1128 11.9583 81.3704 12.7795C81.6441 13.5845 82.0145 14.2607 82.4814 14.8082C82.9483 15.3556 83.5038 15.7742 84.1478 16.064C84.7919 16.3378 85.4922 16.4746 86.249 16.4746Z" fill="#C5E4F3"/>
    <path d="M101.422 18.0203C100.118 18.0203 99.0713 17.6097 98.2823 16.7886C97.4934 15.9513 97.0989 14.7357 97.0989 13.1417V5.77556H98.6929V13.021C98.6929 14.2285 98.9586 15.1221 99.4899 15.7018C100.037 16.2814 100.77 16.5712 101.688 16.5712C102.203 16.5712 102.67 16.4907 103.088 16.3297C103.523 16.1526 103.894 15.9111 104.199 15.6052C104.505 15.2832 104.739 14.9048 104.9 14.4701C105.077 14.0353 105.165 13.5523 105.165 13.021V5.77556H106.759V17.8512H105.504L105.31 16.0399H105.262C104.344 17.3602 103.064 18.0203 101.422 18.0203Z" fill="#C5E4F3"/>
    <path d="M111.221 0.945284H112.815V7.46616H112.863C113.716 6.22639 115.012 5.6065 116.751 5.6065C117.46 5.6065 118.112 5.73531 118.708 5.99292C119.303 6.23444 119.81 6.60476 120.229 7.10389C120.664 7.58691 121.002 8.1907 121.243 8.91524C121.485 9.63978 121.606 10.469 121.606 11.4028V12.224C121.606 13.1578 121.485 13.987 121.243 14.7116C121.002 15.42 120.664 16.0238 120.229 16.5229C119.794 17.006 119.279 17.3763 118.683 17.6339C118.088 17.8915 117.444 18.0203 116.751 18.0203C115.882 18.0203 115.125 17.8673 114.481 17.5614C113.837 17.2394 113.249 16.7322 112.718 16.0399H112.67L112.476 17.8512H111.221V0.945284ZM116.389 16.5712C117.452 16.5712 118.313 16.217 118.973 15.5086C119.633 14.784 119.963 13.6892 119.963 12.224V11.4028C119.963 9.96985 119.625 8.89109 118.949 8.16655C118.289 7.4259 117.436 7.05558 116.389 7.05558C115.326 7.05558 114.465 7.41785 113.805 8.1424C113.145 8.85084 112.815 9.93765 112.815 11.4028V12.224C112.815 13.657 113.145 14.7438 113.805 15.4844C114.481 16.209 115.342 16.5712 116.389 16.5712Z" fill="#C5E4F3"/>
    <path d="M129.807 18.0203C129.035 18.0203 128.326 17.8915 127.682 17.6339C127.038 17.3763 126.491 17.006 126.04 16.5229C125.589 16.0238 125.235 15.42 124.977 14.7116C124.736 13.987 124.615 13.1578 124.615 12.224V11.4028C124.615 10.4851 124.736 9.66393 124.977 8.93939C125.235 8.21485 125.589 7.61107 126.04 7.12804C126.507 6.62891 127.054 6.25054 127.682 5.99292C128.326 5.73531 129.035 5.6065 129.807 5.6065C130.58 5.6065 131.289 5.73531 131.933 5.99292C132.577 6.25054 133.124 6.62891 133.575 7.12804C134.026 7.62717 134.372 8.24705 134.614 8.98769C134.871 9.71223 135 10.5575 135 11.5236V12.2481H126.257C126.257 13.6489 126.563 14.7196 127.175 15.4603C127.787 16.2009 128.664 16.5712 129.807 16.5712C131.53 16.5712 132.673 15.8708 133.237 14.4701H134.879C134.589 15.6293 134.01 16.5149 133.14 17.1267C132.287 17.7224 131.176 18.0203 129.807 18.0203ZM129.807 7.05558C128.777 7.05558 127.948 7.38565 127.32 8.04579C126.692 8.68983 126.338 9.63978 126.257 10.8957H133.358C133.277 9.59148 132.915 8.62542 132.271 7.99749C131.643 7.36955 130.822 7.05558 129.807 7.05558Z" fill="#C5E4F3"/>
</svg>
