<svg width="108" height="14" viewBox="0 0 108 14" fill="none" xmlns="http://www.w3.org/2000/svg">
    <path d="M0 0.175013H4.485C6.63 0.175013 8.255 0.721013 9.36 1.81301C10.465 2.89201 11.0175 4.43901 11.0175 6.45401V7.54601C11.0175 9.53501 10.4585 11.082 9.3405 12.187C8.2225 13.279 6.604 13.825 4.485 13.825H0V0.175013ZM2.34 2.24201V11.758H4.485C5.837 11.758 6.851 11.4135 7.527 10.7245C8.216 10.0355 8.5605 8.97601 8.5605 7.54601V6.45401C8.5605 5.03701 8.216 3.98401 7.527 3.29501C6.838 2.59301 5.824 2.24201 4.485 2.24201H2.34Z" fill="#C5E4F3"/>
    <path d="M20.6396 10.3735H15.4721L14.3411 13.825H11.8841L16.7591 0.175013H19.4891L24.3641 13.825H21.7901L20.6396 10.3735ZM16.1546 8.30651H19.9571L18.9821 5.32301L18.0656 2.51501L17.1491 5.32301L16.1546 8.30651Z" fill="#C5E4F3"/>
    <path d="M31.2894 14.0005C30.3794 14.0005 29.5475 13.8575 28.7935 13.5715C28.0525 13.2725 27.4154 12.85 26.8825 12.304C26.3624 11.745 25.9595 11.0625 25.6735 10.2565C25.3875 9.45051 25.2444 8.53401 25.2444 7.50701V6.49301C25.2444 5.47901 25.3875 4.56901 25.6735 3.76301C25.9725 2.95701 26.3819 2.28101 26.9019 1.73501C27.4349 1.17601 28.0719 0.747012 28.8129 0.448012C29.5669 0.149012 30.3924 -0.000488281 31.2894 -0.000488281C32.1994 -0.000488281 33.0249 0.149012 33.7659 0.448012C34.5199 0.734012 35.1569 1.15651 35.6769 1.71551C36.2099 2.27451 36.6194 2.95701 36.9054 3.76301C37.1914 4.55601 37.3344 5.46601 37.3344 6.49301V7.50701C37.3344 8.52101 37.1849 9.43101 36.8859 10.237C36.5999 11.043 36.1904 11.7255 35.6575 12.2845C35.1375 12.8435 34.5005 13.2725 33.7465 13.5715C33.0055 13.8575 32.1864 14.0005 31.2894 14.0005ZM31.2894 11.8165C32.3554 11.8165 33.2199 11.459 33.8829 10.744C34.5459 10.016 34.8775 8.93701 34.8775 7.50701V6.49301C34.8775 5.79101 34.7864 5.17351 34.6044 4.64051C34.4354 4.09451 34.1884 3.64601 33.8634 3.29501C33.5514 2.93101 33.1744 2.65801 32.7324 2.47601C32.2904 2.28101 31.8094 2.18351 31.2894 2.18351C30.2104 2.18351 29.3395 2.54751 28.6765 3.27551C28.0265 3.99051 27.7014 5.06301 27.7014 6.49301V7.50701C27.7014 8.92401 28.0329 9.99651 28.6959 10.7245C29.3719 11.4525 30.2364 11.8165 31.2894 11.8165Z" fill="#C5E4F3"/>
    <path d="M45.3983 0.175013H49.5908C51.2028 0.175013 52.3663 0.500012 53.0813 1.15001C53.8093 1.78701 54.1733 2.67101 54.1733 3.80201C54.1733 4.45201 54.0173 5.03051 53.7053 5.53751C53.4063 6.03151 52.9383 6.42801 52.3013 6.72701C53.0813 7.01301 53.6533 7.43551 54.0173 7.99451C54.3813 8.55351 54.5633 9.22301 54.5633 10.003C54.5633 11.238 54.1993 12.187 53.4713 12.85C52.7563 13.5 51.5928 13.825 49.9808 13.825H45.3983V0.175013ZM46.7633 7.42901V12.577H49.9808C51.1248 12.577 51.9373 12.3625 52.4183 11.9335C52.9123 11.4915 53.1593 10.848 53.1593 10.003C53.1593 9.15801 52.9123 8.52101 52.4183 8.09201C51.9373 7.65001 51.1248 7.42901 49.9808 7.42901H46.7633ZM46.7633 1.42301V6.18101H49.5908C50.7348 6.18101 51.5473 5.97301 52.0283 5.55701C52.5223 5.12801 52.7693 4.54301 52.7693 3.80201C52.7693 3.06101 52.5223 2.48251 52.0283 2.06651C51.5473 1.63751 50.7348 1.42301 49.5908 1.42301H46.7633Z" fill="#C5E4F3"/>
    <path d="M61.0842 13.9615C60.0182 13.9615 59.1667 13.6235 58.5297 12.9475C57.8927 12.2715 57.5742 11.264 57.5742 9.92501V4.07501H58.8612V9.92501C58.8612 10.874 59.0757 11.5825 59.5047 12.0505C59.9467 12.5185 60.5382 12.7525 61.2792 12.7525C62.1112 12.7525 62.7872 12.4925 63.3072 11.9725C63.8272 11.4525 64.0872 10.77 64.0872 9.92501V4.07501H65.3742V13.825H64.3797L64.2237 12.226C63.8987 12.785 63.4632 13.214 62.9172 13.513C62.3842 13.812 61.7732 13.9615 61.0842 13.9615Z" fill="#C5E4F3"/>
    <path d="M69.1711 4.07501H70.4581V13.825H69.1711V4.07501ZM69.8146 2.35901C69.5546 2.35901 69.3336 2.27451 69.1516 2.10551C68.9826 1.92351 68.8981 1.70251 68.8981 1.44251C68.8981 1.18251 68.9826 0.968012 69.1516 0.799012C69.3336 0.617012 69.5546 0.526011 69.8146 0.526011C70.0746 0.526011 70.2891 0.617012 70.4581 0.799012C70.6401 0.968012 70.7311 1.18251 70.7311 1.44251C70.7311 1.70251 70.6401 1.92351 70.4581 2.10551C70.2891 2.27451 70.0746 2.35901 69.8146 2.35901Z" fill="#C5E4F3"/>
    <path d="M76.779 13.825C75.96 13.825 75.3295 13.6105 74.8875 13.1815C74.4585 12.7395 74.244 12.096 74.244 11.251V0.175013H75.531V11.095C75.531 12.135 75.999 12.655 76.935 12.655H77.559V13.825H76.779Z" fill="#C5E4F3"/>
    <path d="M83.3201 13.9615C82.7611 13.9615 82.2476 13.864 81.7796 13.669C81.3116 13.474 80.9086 13.188 80.5706 12.811C80.2326 12.421 79.9661 11.94 79.7711 11.368C79.5891 10.796 79.4981 10.133 79.4981 9.37901V8.52101C79.4981 7.78001 79.5891 7.12351 79.7711 6.55151C79.9661 5.97951 80.2326 5.49851 80.5706 5.10851C80.9086 4.71851 81.3116 4.42601 81.7796 4.23101C82.2476 4.03601 82.7611 3.93851 83.3201 3.93851C83.9961 3.93851 84.5941 4.06851 85.1141 4.32851C85.6341 4.58851 86.0631 4.97851 86.4011 5.49851V0.175013H87.6881V13.825H86.6936L86.5181 12.187C86.1931 12.785 85.7576 13.2335 85.2116 13.5325C84.6656 13.8185 84.0351 13.9615 83.3201 13.9615ZM83.6126 12.7525C84.0156 12.7525 84.3861 12.681 84.7241 12.538C85.0621 12.382 85.3546 12.1675 85.6016 11.8945C85.8486 11.6085 86.0436 11.2575 86.1866 10.8415C86.3296 10.4125 86.4011 9.92501 86.4011 9.37901V8.36501C86.3751 7.32501 86.0956 6.53201 85.5626 5.98601C85.0426 5.42701 84.3926 5.14751 83.6126 5.14751C82.7676 5.14751 82.0916 5.42701 81.5846 5.98601C81.0776 6.53201 80.8241 7.37701 80.8241 8.52101V9.37901C80.8241 10.51 81.0776 11.355 81.5846 11.914C82.1046 12.473 82.7806 12.7525 83.6126 12.7525Z" fill="#C5E4F3"/>
    <path d="M94.8808 13.9615C93.5938 13.9615 92.5733 13.5715 91.8193 12.7915C91.0653 11.9985 90.6883 10.861 90.6883 9.37901V8.52101C90.6883 7.05201 91.0653 5.92101 91.8193 5.12801C92.5863 4.33501 93.6068 3.93851 94.8808 3.93851C96.1548 3.93851 97.1688 4.33501 97.9228 5.12801C98.6898 5.92101 99.0733 7.05201 99.0733 8.52101V9.32051H92.0143V9.37901C92.0143 10.51 92.2743 11.355 92.7943 11.914C93.3143 12.473 94.0098 12.7525 94.8808 12.7525C95.6868 12.7525 96.2978 12.5835 96.7138 12.2455C97.1428 11.9075 97.4548 11.485 97.6498 10.978H98.9758C98.8718 11.394 98.7158 11.784 98.5078 12.148C98.2998 12.512 98.0268 12.8305 97.6888 13.1035C97.3508 13.3635 96.9478 13.5715 96.4798 13.7275C96.0118 13.8835 95.4788 13.9615 94.8808 13.9615ZM94.8808 5.14751C94.0358 5.14751 93.3598 5.41401 92.8528 5.94701C92.3588 6.46701 92.0793 7.21451 92.0143 8.18951H97.7278C97.6758 7.17551 97.3898 6.41501 96.8698 5.90801C96.3628 5.40101 95.6998 5.14751 94.8808 5.14751Z" fill="#C5E4F3"/>
    <path d="M102.083 4.07501H103.077L103.233 5.67401C103.545 5.11501 103.968 4.68601 104.501 4.38701C105.047 4.08801 105.671 3.93851 106.373 3.93851H107.348V5.14751H106.373C105.463 5.14751 104.741 5.39451 104.208 5.88851C103.675 6.38251 103.396 7.03901 103.37 7.85801V13.825H102.083V4.07501Z" fill="#C5E4F3"/>
</svg>
