<svg width="20" height="12" viewBox="0 0 20 12" fill="none" xmlns="http://www.w3.org/2000/svg">
    <path fill-rule="evenodd" clip-rule="evenodd" d="M11.3953 5.69767C11.3953 8.84441 8.84441 11.3953 5.69767 11.3953C2.55094 11.3953 0 8.84441 0 5.69767C0 2.55094 2.55094 0 5.69767 0C8.84441 0 11.3953 2.55094 11.3953 5.69767ZM17.4419 5.69767C17.4419 8.71597 16.1924 11.1628 14.6512 11.1628C13.1099 11.1628 11.8605 8.71597 11.8605 5.69767C11.8605 2.67937 13.1099 0.232558 14.6512 0.232558C16.1924 0.232558 17.4419 2.67937 17.4419 5.69767ZM18.9535 10.4651C19.5315 10.4651 20 8.2786 20 5.5814C20 2.88419 19.5315 0.697674 18.9535 0.697674C18.3755 0.697674 17.907 2.88419 17.907 5.5814C17.907 8.2786 18.3755 10.4651 18.9535 10.4651Z" fill="white" fill-opacity="0.48"/>
</svg>
