<svg width="16" height="16" viewBox="0 0 16 16" fill="none" xmlns="http://www.w3.org/2000/svg">
    <path d="M11.3638 13.4994C11.8736 13.176 12.3353 12.7816 12.7354 12.3294L14.1777 13.1752L15.491 10.8653L14.0516 10.0214C14.2346 9.45402 14.3422 8.85221 14.3624 8.22838L16 7.93519L15.5437 5.3086L13.9064 5.6018C13.6802 5.03235 13.3766 4.50285 13.0085 4.02699L14.0787 2.73199L12.0666 1.01771L10.9973 2.31162C10.475 2.02741 9.90934 1.81496 9.31323 1.68748V0L6.68665 0V1.68748C6.09048 1.81496 5.52487 2.02741 5.0025 2.31162L3.93319 1.01771L1.92108 2.73205L2.99123 4.02705C2.62315 4.50291 2.31959 5.03247 2.09332 5.60186L0.456038 5.30866L0 7.93525L1.63734 8.22845C1.65752 8.85234 1.76523 9.45402 1.94825 10.0216L0.50869 10.8654L1.82204 13.1752L3.26444 12.3297C3.66439 12.7817 4.12609 13.1762 4.63592 13.4996L4.06657 15.0878L6.53484 15.9999L7.10341 14.4138C7.39643 14.4559 7.69565 14.4782 7.99994 14.4782C8.30423 14.4782 8.60351 14.456 8.89653 14.4138L9.46504 16L11.9332 15.0877L11.3638 13.4994ZM7.99982 12C5.79073 11.9999 4 10.2091 4 8C4 5.79086 5.79086 4 8 4C10.2091 4 12 5.79086 12 8C12 10.2092 10.209 12.0001 7.99982 12Z" fill="white" fill-opacity="0.48"/>
</svg>
