<svg width="40" height="40" viewBox="0 0 40 40" fill="none" xmlns="http://www.w3.org/2000/svg">
    <rect width="40" height="40" fill="#C5E4F3" fill-opacity="0.16"/>
    <path fill-rule="evenodd" clip-rule="evenodd" d="M22.4753 22.2903H23.295H24.1146V25.5162V27.9355H19.1966L19.1967 31L17.0492 30.2799L12.1163 28.662C11.4459 28.433 11 28.2782 11 28.2782V11H12.6394C12.662 11 12.6838 11.0046 12.7056 11.0092C12.7225 11.0127 12.7394 11.0163 12.7566 11.0177C12.7693 11.0161 12.7812 11.0127 12.7932 11.0093C12.8097 11.0046 12.8261 11 12.8442 11H21.6556H24.1146V15.8387H23.295H22.4753L22.4754 12.6127L21.6556 12.6128H17.8376H15.918L19.1966 13.4194V26.3226H22.4753V25.5162V22.2903ZM27.153 15.2686L31 19.0644C31 19.0644 30.7522 19.3194 30.4318 19.6346L27.153 22.8605L25.7541 24.2257L25.7539 19.8709H21.6556V19.0645V18.2581H25.7539L25.7541 13.903L27.153 15.2686Z" fill="#C5E4F3"/>
</svg>
