<svg width="60" height="54" viewBox="0 0 60 54" fill="none" xmlns="http://www.w3.org/2000/svg">
    <path fill-rule="evenodd" clip-rule="evenodd" d="M57.8442 37.5415L39.1633 5.60666C37.2878 2.3554 33.7923 0.33744 30.0119 0.333015C26.2312 0.328589 22.7344 2.33822 20.8357 5.60679L2.14784 37.5533C0.210044 40.8116 0.166205 44.8944 2.04318 48.2242C3.92171 51.5567 7.43913 53.6306 11.2651 53.6618L48.6994 53.6619C52.5652 53.6243 56.0759 51.5568 57.9541 48.2272C59.8302 44.9016 59.7882 40.8278 57.8442 37.5415ZM6.74159 40.2628L25.4433 8.29276C26.3904 6.66244 28.1274 5.66415 30.0057 5.66635C31.8838 5.66854 33.6202 6.67096 34.5516 8.2856L53.2472 40.2457C54.2272 41.9023 54.2482 43.9418 53.3089 45.6068C52.3683 47.2742 50.6099 48.3098 48.6734 48.3287L11.2868 48.3285C9.39184 48.313 7.62997 47.2742 6.6892 45.6053C5.74946 43.9382 5.77141 41.8942 6.74159 40.2628ZM30.0009 42.9948C31.4742 42.9948 32.6685 41.8009 32.6685 40.3281C32.6685 38.8553 31.4742 37.6614 30.0009 37.6614C28.5277 37.6614 27.3334 38.8553 27.3334 40.3281C27.3334 41.8009 28.5277 42.9948 30.0009 42.9948ZM32.6764 16.3281H27.3413V34.9948H32.6764V16.3281Z" fill="white"/>
</svg>
